<svg xmlns="http://www.w3.org/2000/svg" viewBox="0 0 800 520" width="800" height="520" preserveAspectRatio="xMidYMid slice" role="img"><defs><linearGradient id="gloss" x1="0" y1="0" x2="0" y2="1"><stop offset="0" stop-color="#ffffff"/><stop offset="1" stop-color="#ffffff"/></linearGradient><linearGradient id="roadg" x1="0" y1="0" x2="0" y2="1"><stop offset="0" stop-color="#64748b"/><stop offset="1" stop-color="#1f2937"/></linearGradient><linearGradient id="gloss3" x1="0" y1="0" x2="0" y2="1"><stop offset="0" stop-color="#fff"/><stop offset="1" stop-color="#fff"/></linearGradient></defs><rect width="800" height="520" fill="url(#skyc_car-sedan.svg)"/><circle cx="680" cy="110" r="50" fill="#fff3d6" opacity="0.9"/><circle cx="680" cy="110" r="80" fill="#fff3d6" opacity="0.18"/><rect y="370" width="800" height="150" fill="url(#floor2_car-sedan.svg)"/><rect y="370" width="800" height="4" fill="#94a3b8"/><g transform="translate(220,250) scale(1.35)"><ellipse cx="150" cy="126" rx="140" ry="16" fill="#000" opacity="0.18"/><path d="M20,96 Q40,50 96,46 L150,20 Q210,22 236,60 L280,74 Q296,80 296,100 L296,110 Q296,120 284,120 L20,120 Q10,120 10,108 Z" fill="#0ea5a4"/><path d="M20,96 Q40,50 96,46 L150,20 Q210,22 236,60 L280,74 Q296,80 296,100 L296,110 Q296,120 284,120 L20,120 Q10,120 10,108 Z" fill="url(#gloss)" opacity="0.25"/><path d="M104,52 L146,32 Q150,50 150,66 L110,66 Q100,66 104,52 Z" fill="#dff1ff"/><path d="M158,34 Q206,36 226,62 L158,66 Z" fill="#dff1ff"/><circle cx="86" cy="120" r="26" fill="#111827"/><circle cx="86" cy="120" r="11" fill="#9ca3af"/><circle cx="228" cy="120" r="26" fill="#111827"/><circle cx="228" cy="120" r="11" fill="#9ca3af"/><rect x="286" y="86" width="12" height="16" rx="3" fill="#ffd166"/></g><g transform="translate(24,462)"><rect x="0" y="0" width="215" height="34" rx="17" fill="#0f172a" opacity="0.62"/><path d="M18,9 a6,6 0 1 1 0,12 a6,6 0 1 1 0,-12 M18,21 l0,6" stroke="#ffd166" stroke-width="2.4" fill="none"/><text x="34" y="23" font-family="Segoe UI, Arial" font-size="16" fill="#fff">Sedan (Dzire / Etios)</text></g><text x="784" y="504" text-anchor="end" font-family="Segoe UI, Arial" font-size="15" fill="#ffffff" opacity="0.5">Shree Travels • placeholder</text></svg>