<svg xmlns="http://www.w3.org/2000/svg" viewBox="0 0 800 520" width="800" height="520" preserveAspectRatio="xMidYMid slice" role="img"><defs><linearGradient id="gloss" x1="0" y1="0" x2="0" y2="1"><stop offset="0" stop-color="#ffffff"/><stop offset="1" stop-color="#ffffff"/></linearGradient><linearGradient id="roadg" x1="0" y1="0" x2="0" y2="1"><stop offset="0" stop-color="#64748b"/><stop offset="1" stop-color="#1f2937"/></linearGradient><linearGradient id="sky_dest-ooty.svg" x1="0" y1="0" x2="0" y2="1"><stop offset="0" stop-color="#a7f3d0"/><stop offset="1" stop-color="#ecfeff"/></linearGradient><linearGradient id="vg" x1="0" y1="0" x2="0" y2="1"><stop offset="0.55" stop-color="#000" stop-opacity="0"/><stop offset="1" stop-color="#000" stop-opacity="0.45"/></linearGradient></defs><rect width="800" height="520" fill="url(#sky_dest-ooty.svg)"/><circle cx="650" cy="120" r="48" fill="#e0f2fe" opacity="0.9"/><circle cx="650" cy="120" r="77" fill="#e0f2fe" opacity="0.18"/><path d="M0,520 L0,290 Q0,290 50,320 Q100,350 150,320 Q200,290 250,320 Q300,350 350,320 Q400,290 450,320 Q500,350 550,320 Q600,290 650,320 Q700,350 750,320 L800,520 Z" fill="#34d399"/><path d="M0,520 L0,378 Q0,378 50,400 Q100,422 150,400 Q200,378 250,400 Q300,422 350,400 Q400,378 450,400 Q500,422 550,400 Q600,378 650,400 Q700,422 750,400 L800,520 Z" fill="#059669"/><path d="M0,380 Q400.0,366 800,380" stroke="#065f46" stroke-width="3" fill="none" opacity="0.5"/><path d="M0,390 Q400.0,376 800,390" stroke="#065f46" stroke-width="3" fill="none" opacity="0.5"/><path d="M0,400 Q400.0,386 800,400" stroke="#065f46" stroke-width="3" fill="none" opacity="0.5"/><path d="M0,410 Q400.0,396 800,410" stroke="#065f46" stroke-width="3" fill="none" opacity="0.5"/><path d="M0,420 Q400.0,406 800,420" stroke="#065f46" stroke-width="3" fill="none" opacity="0.5"/><path d="M0,430 Q400.0,416 800,430" stroke="#065f46" stroke-width="3" fill="none" opacity="0.5"/><g transform="translate(720.0,400) scale(0.8)"><path d="M-4,0 q4,-70 0,-120 q6,50 4,120 Z" fill="#8b5e34"/><g fill="#16a34a"><path d="M0,-120 q-60,-6 -86,26 q40,-6 86,-10 Z"/><path d="M0,-120 q60,-6 86,26 q-40,-6 -86,-10 Z"/><path d="M0,-120 q-44,-40 -30,-84 q26,26 30,80 Z"/><path d="M0,-120 q44,-40 30,-84 q-26,26 -30,80 Z"/><path d="M0,-124 q0,-40 0,-70 q10,34 6,72 Z"/></g></g><path d="M240,394 L560,394 L800,520 L0,520 Z" fill="#3f4652"/><path d="M240,394 L560,394 L800,520 L0,520 Z" fill="url(#roadg)" opacity="0.35"/><path d="M400,394 L394,520 L406,520 Z" fill="#f8fafc" opacity="0.85"/><path d="M400,424 l0,26 M400,474 l0,34 M400,544 l0,44" stroke="#f8fafc" stroke-width="7" opacity="0.9"/><g transform="translate(307.0,330) scale(0.62)"><ellipse cx="150" cy="150" rx="150" ry="18" fill="#000" opacity="0.18"/><rect x="0" y="10" width="300" height="120" rx="20" fill="#7c3aed"/><rect x="0" y="10" width="300" height="120" rx="20" fill="url(#gloss)" opacity="0.25"/><rect x="14" y="30" width="150" height="42" rx="8" fill="#dff1ff"/><g fill="#bfe3ff"><rect x="176" y="30" width="34" height="42" rx="6"/><rect x="216" y="30" width="34" height="42" rx="6"/><rect x="256" y="30" width="30" height="42" rx="6"/></g><rect x="0" y="92" width="300" height="12" fill="#0f172a" opacity="0.18"/><rect x="286" y="44" width="14" height="30" rx="3" fill="#ffd166"/><circle cx="70" cy="130" r="24" fill="#111827"/><circle cx="70" cy="130" r="10" fill="#9ca3af"/><circle cx="230" cy="130" r="24" fill="#111827"/><circle cx="230" cy="130" r="10" fill="#9ca3af"/></g><rect width="800" height="520" fill="url(#vg)"/><g transform="translate(24,462)"><rect x="0" y="0" width="62" height="34" rx="17" fill="#0f172a" opacity="0.62"/><path d="M18,9 a6,6 0 1 1 0,12 a6,6 0 1 1 0,-12 M18,21 l0,6" stroke="#ffd166" stroke-width="2.4" fill="none"/><text x="34" y="23" font-family="Segoe UI, Arial" font-size="16" fill="#fff">Ooty</text></g><text x="784" y="504" text-anchor="end" font-family="Segoe UI, Arial" font-size="15" fill="#ffffff" opacity="0.5">Shree Travels • placeholder</text></svg>