<svg xmlns="http://www.w3.org/2000/svg" viewBox="0 0 800 520" width="800" height="520" preserveAspectRatio="xMidYMid slice" role="img"><defs><linearGradient id="gloss" x1="0" y1="0" x2="0" y2="1"><stop offset="0" stop-color="#ffffff"/><stop offset="1" stop-color="#ffffff"/></linearGradient><linearGradient id="roadg" x1="0" y1="0" x2="0" y2="1"><stop offset="0" stop-color="#64748b"/><stop offset="1" stop-color="#1f2937"/></linearGradient><linearGradient id="sky_dest-tirupati.svg" x1="0" y1="0" x2="0" y2="1"><stop offset="0" stop-color="#bae6fd"/><stop offset="1" stop-color="#fef9c3"/></linearGradient><linearGradient id="vg" x1="0" y1="0" x2="0" y2="1"><stop offset="0.55" stop-color="#000" stop-opacity="0"/><stop offset="1" stop-color="#000" stop-opacity="0.45"/></linearGradient></defs><rect width="800" height="520" fill="url(#sky_dest-tirupati.svg)"/><circle cx="660" cy="120" r="46" fill="#ffe9c7" opacity="0.9"/><circle cx="660" cy="120" r="74" fill="#ffe9c7" opacity="0.18"/><path d="M0,520 L0,345 Q0,345 50,360 Q100,375 150,360 Q200,345 250,360 Q300,375 350,360 Q400,345 450,360 Q500,375 550,360 Q600,345 650,360 Q700,375 750,360 L800,520 Z" fill="#86efac"/><rect x="165" y="358" width="150" height="44" rx="4" fill="#c2410c" opacity="0.92"/><rect x="165" y="358" width="150" height="6" fill="#fff" opacity="0.25"/><rect x="176" y="316" width="129" height="44" rx="4" fill="#c2410c" opacity="0.84"/><rect x="176" y="316" width="129" height="6" fill="#fff" opacity="0.25"/><rect x="186" y="274" width="108" height="44" rx="4" fill="#c2410c" opacity="0.76"/><rect x="186" y="274" width="108" height="6" fill="#fff" opacity="0.25"/><rect x="196" y="232" width="87" height="44" rx="4" fill="#c2410c" opacity="0.68"/><rect x="196" y="232" width="87" height="6" fill="#fff" opacity="0.25"/><rect x="207" y="190" width="66" height="44" rx="4" fill="#c2410c" opacity="0.60"/><rect x="207" y="190" width="66" height="6" fill="#fff" opacity="0.25"/><path d="M216,190 Q240,156 264,190 Z" fill="#b45309"/><circle cx="240" cy="160" r="6" fill="#fbbf24"/><rect x="521" y="370" width="110" height="32" rx="4" fill="#ea580c" opacity="0.92"/><rect x="521" y="370" width="110" height="6" fill="#fff" opacity="0.25"/><rect x="529" y="340" width="95" height="32" rx="4" fill="#ea580c" opacity="0.84"/><rect x="529" y="340" width="95" height="6" fill="#fff" opacity="0.25"/><rect x="536" y="310" width="79" height="32" rx="4" fill="#ea580c" opacity="0.76"/><rect x="536" y="310" width="79" height="6" fill="#fff" opacity="0.25"/><rect x="544" y="280" width="64" height="32" rx="4" fill="#ea580c" opacity="0.68"/><rect x="544" y="280" width="64" height="6" fill="#fff" opacity="0.25"/><rect x="552" y="250" width="48" height="32" rx="4" fill="#ea580c" opacity="0.60"/><rect x="552" y="250" width="48" height="6" fill="#fff" opacity="0.25"/><path d="M558,250 Q576,216 594,250 Z" fill="#b45309"/><circle cx="576" cy="220" r="6" fill="#fbbf24"/><g transform="translate(720.0,400) scale(1.1)"><path d="M-4,0 q4,-70 0,-120 q6,50 4,120 Z" fill="#8b5e34"/><g fill="#16a34a"><path d="M0,-120 q-60,-6 -86,26 q40,-6 86,-10 Z"/><path d="M0,-120 q60,-6 86,26 q-40,-6 -86,-10 Z"/><path d="M0,-120 q-44,-40 -30,-84 q26,26 30,80 Z"/><path d="M0,-120 q44,-40 30,-84 q-26,26 -30,80 Z"/><path d="M0,-124 q0,-40 0,-70 q10,34 6,72 Z"/></g></g><g transform="translate(96.0,400) scale(0.9)"><path d="M-4,0 q4,-70 0,-120 q6,50 4,120 Z" fill="#8b5e34"/><g fill="#16a34a"><path d="M0,-120 q-60,-6 -86,26 q40,-6 86,-10 Z"/><path d="M0,-120 q60,-6 86,26 q-40,-6 -86,-10 Z"/><path d="M0,-120 q-44,-40 -30,-84 q26,26 30,80 Z"/><path d="M0,-120 q44,-40 30,-84 q-26,26 -30,80 Z"/><path d="M0,-124 q0,-40 0,-70 q10,34 6,72 Z"/></g></g><path d="M240,394 L560,394 L800,520 L0,520 Z" fill="#3f4652"/><path d="M240,394 L560,394 L800,520 L0,520 Z" fill="url(#roadg)" opacity="0.35"/><path d="M400,394 L394,520 L406,520 Z" fill="#f8fafc" opacity="0.85"/><path d="M400,424 l0,26 M400,474 l0,34 M400,544 l0,44" stroke="#f8fafc" stroke-width="7" opacity="0.9"/><g transform="translate(307.0,330) scale(0.62)"><ellipse cx="150" cy="150" rx="150" ry="18" fill="#000" opacity="0.18"/><rect x="0" y="10" width="300" height="120" rx="20" fill="#f97316"/><rect x="0" y="10" width="300" height="120" rx="20" fill="url(#gloss)" opacity="0.25"/><rect x="14" y="30" width="150" height="42" rx="8" fill="#dff1ff"/><g fill="#bfe3ff"><rect x="176" y="30" width="34" height="42" rx="6"/><rect x="216" y="30" width="34" height="42" rx="6"/><rect x="256" y="30" width="30" height="42" rx="6"/></g><rect x="0" y="92" width="300" height="12" fill="#0f172a" opacity="0.18"/><rect x="286" y="44" width="14" height="30" rx="3" fill="#ffd166"/><circle cx="70" cy="130" r="24" fill="#111827"/><circle cx="70" cy="130" r="10" fill="#9ca3af"/><circle cx="230" cy="130" r="24" fill="#111827"/><circle cx="230" cy="130" r="10" fill="#9ca3af"/></g><rect width="800" height="520" fill="url(#vg)"/><g transform="translate(24,462)"><rect x="0" y="0" width="98" height="34" rx="17" fill="#0f172a" opacity="0.62"/><path d="M18,9 a6,6 0 1 1 0,12 a6,6 0 1 1 0,-12 M18,21 l0,6" stroke="#ffd166" stroke-width="2.4" fill="none"/><text x="34" y="23" font-family="Segoe UI, Arial" font-size="16" fill="#fff">Tirupati</text></g><text x="784" y="504" text-anchor="end" font-family="Segoe UI, Arial" font-size="15" fill="#ffffff" opacity="0.5">Shree Travels • placeholder</text></svg>