<svg xmlns="http://www.w3.org/2000/svg" viewBox="0 0 800 520" width="800" height="520" preserveAspectRatio="xMidYMid slice" role="img"><defs><linearGradient id="gloss" x1="0" y1="0" x2="0" y2="1"><stop offset="0" stop-color="#ffffff"/><stop offset="1" stop-color="#ffffff"/></linearGradient><linearGradient id="roadg" x1="0" y1="0" x2="0" y2="1"><stop offset="0" stop-color="#64748b"/><stop offset="1" stop-color="#1f2937"/></linearGradient><linearGradient id="sky_dest-southindia.svg" x1="0" y1="0" x2="0" y2="1"><stop offset="0" stop-color="#bfdbfe"/><stop offset="1" stop-color="#dcfce7"/></linearGradient><linearGradient id="vg" x1="0" y1="0" x2="0" y2="1"><stop offset="0.55" stop-color="#000" stop-opacity="0"/><stop offset="1" stop-color="#000" stop-opacity="0.45"/></linearGradient></defs><rect width="800" height="520" fill="url(#sky_dest-southindia.svg)"/><circle cx="150" cy="120" r="50" fill="#fff0cf" opacity="0.9"/><circle cx="150" cy="120" r="80" fill="#fff0cf" opacity="0.18"/><path d="M0,520 L0,357 Q0,357 50,370 Q100,383 150,370 Q200,357 250,370 Q300,383 350,370 Q400,357 450,370 Q500,383 550,370 Q600,357 650,370 Q700,383 750,370 L800,520 Z" fill="#4ade80"/><rect x="315" y="352" width="170" height="50" rx="4" fill="#b91c1c" opacity="0.92"/><rect x="315" y="352" width="170" height="6" fill="#fff" opacity="0.25"/><rect x="327" y="304" width="146" height="50" rx="4" fill="#b91c1c" opacity="0.84"/><rect x="327" y="304" width="146" height="6" fill="#fff" opacity="0.25"/><rect x="339" y="256" width="122" height="50" rx="4" fill="#b91c1c" opacity="0.76"/><rect x="339" y="256" width="122" height="6" fill="#fff" opacity="0.25"/><rect x="351" y="208" width="99" height="50" rx="4" fill="#b91c1c" opacity="0.68"/><rect x="351" y="208" width="99" height="6" fill="#fff" opacity="0.25"/><rect x="363" y="160" width="75" height="50" rx="4" fill="#b91c1c" opacity="0.60"/><rect x="363" y="160" width="75" height="6" fill="#fff" opacity="0.25"/><path d="M373,160 Q400,126 427,160 Z" fill="#b45309"/><circle cx="400" cy="130" r="6" fill="#fbbf24"/><g transform="translate(128.0,400) scale(1.2)"><path d="M-4,0 q4,-70 0,-120 q6,50 4,120 Z" fill="#8b5e34"/><g fill="#16a34a"><path d="M0,-120 q-60,-6 -86,26 q40,-6 86,-10 Z"/><path d="M0,-120 q60,-6 86,26 q-40,-6 -86,-10 Z"/><path d="M0,-120 q-44,-40 -30,-84 q26,26 30,80 Z"/><path d="M0,-120 q44,-40 30,-84 q-26,26 -30,80 Z"/><path d="M0,-124 q0,-40 0,-70 q10,34 6,72 Z"/></g></g><g transform="translate(688.0,400) scale(1.0)"><path d="M-4,0 q4,-70 0,-120 q6,50 4,120 Z" fill="#8b5e34"/><g fill="#16a34a"><path d="M0,-120 q-60,-6 -86,26 q40,-6 86,-10 Z"/><path d="M0,-120 q60,-6 86,26 q-40,-6 -86,-10 Z"/><path d="M0,-120 q-44,-40 -30,-84 q26,26 30,80 Z"/><path d="M0,-120 q44,-40 30,-84 q-26,26 -30,80 Z"/><path d="M0,-124 q0,-40 0,-70 q10,34 6,72 Z"/></g></g><g transform="translate(592.0,400) scale(0.7)"><path d="M-4,0 q4,-70 0,-120 q6,50 4,120 Z" fill="#8b5e34"/><g fill="#16a34a"><path d="M0,-120 q-60,-6 -86,26 q40,-6 86,-10 Z"/><path d="M0,-120 q60,-6 86,26 q-40,-6 -86,-10 Z"/><path d="M0,-120 q-44,-40 -30,-84 q26,26 30,80 Z"/><path d="M0,-120 q44,-40 30,-84 q-26,26 -30,80 Z"/><path d="M0,-124 q0,-40 0,-70 q10,34 6,72 Z"/></g></g><path d="M240,394 L560,394 L800,520 L0,520 Z" fill="#3f4652"/><path d="M240,394 L560,394 L800,520 L0,520 Z" fill="url(#roadg)" opacity="0.35"/><path d="M400,394 L394,520 L406,520 Z" fill="#f8fafc" opacity="0.85"/><path d="M400,424 l0,26 M400,474 l0,34 M400,544 l0,44" stroke="#f8fafc" stroke-width="7" opacity="0.9"/><g transform="translate(307.0,330) scale(0.62)"><ellipse cx="150" cy="150" rx="150" ry="18" fill="#000" opacity="0.18"/><rect x="0" y="10" width="300" height="120" rx="20" fill="#1d4ed8"/><rect x="0" y="10" width="300" height="120" rx="20" fill="url(#gloss)" opacity="0.25"/><rect x="14" y="30" width="150" height="42" rx="8" fill="#dff1ff"/><g fill="#bfe3ff"><rect x="176" y="30" width="34" height="42" rx="6"/><rect x="216" y="30" width="34" height="42" rx="6"/><rect x="256" y="30" width="30" height="42" rx="6"/></g><rect x="0" y="92" width="300" height="12" fill="#0f172a" opacity="0.18"/><rect x="286" y="44" width="14" height="30" rx="3" fill="#ffd166"/><circle cx="70" cy="130" r="24" fill="#111827"/><circle cx="70" cy="130" r="10" fill="#9ca3af"/><circle cx="230" cy="130" r="24" fill="#111827"/><circle cx="230" cy="130" r="10" fill="#9ca3af"/></g><rect width="800" height="520" fill="url(#vg)"/><g transform="translate(24,462)"><rect x="0" y="0" width="125" height="34" rx="17" fill="#0f172a" opacity="0.62"/><path d="M18,9 a6,6 0 1 1 0,12 a6,6 0 1 1 0,-12 M18,21 l0,6" stroke="#ffd166" stroke-width="2.4" fill="none"/><text x="34" y="23" font-family="Segoe UI, Arial" font-size="16" fill="#fff">South India</text></g><text x="784" y="504" text-anchor="end" font-family="Segoe UI, Arial" font-size="15" fill="#ffffff" opacity="0.5">Shree Travels • placeholder</text></svg>