<svg xmlns="http://www.w3.org/2000/svg" viewBox="0 0 800 520" width="800" height="520" preserveAspectRatio="xMidYMid slice" role="img"><defs><linearGradient id="gloss" x1="0" y1="0" x2="0" y2="1"><stop offset="0" stop-color="#ffffff"/><stop offset="1" stop-color="#ffffff"/></linearGradient><linearGradient id="roadg" x1="0" y1="0" x2="0" y2="1"><stop offset="0" stop-color="#64748b"/><stop offset="1" stop-color="#1f2937"/></linearGradient><linearGradient id="sky_dest-northindia.svg" x1="0" y1="0" x2="0" y2="1"><stop offset="0" stop-color="#fed7aa"/><stop offset="1" stop-color="#fef3c7"/></linearGradient><linearGradient id="vg" x1="0" y1="0" x2="0" y2="1"><stop offset="0.55" stop-color="#000" stop-opacity="0"/><stop offset="1" stop-color="#000" stop-opacity="0.45"/></linearGradient></defs><rect width="800" height="520" fill="url(#sky_dest-northindia.svg)"/><circle cx="150" cy="120" r="50" fill="#ffe4c7" opacity="0.9"/><circle cx="150" cy="120" r="80" fill="#ffe4c7" opacity="0.18"/><path d="M0,520 L0,391 Q0,391 50,400 Q100,409 150,400 Q200,391 250,400 Q300,409 350,400 Q400,391 450,400 Q500,409 550,400 Q600,391 650,400 Q700,409 750,400 L800,520 Z" fill="#fca5a5"/><rect x="325" y="325" width="150" height="75" fill="#f8fafc"/><path d="M325,325 Q400,228 475,325 Z" fill="#f8fafc"/><rect x="397" y="242" width="6" height="18" fill="#cbd5e1"/><circle cx="400" cy="242" r="6" fill="#e2e8f0"/><rect x="189" y="361" width="70" height="39" fill="#f8fafc"/><path d="M189,361 Q224,310 259,361 Z" fill="#f8fafc"/><rect x="221" y="318" width="6" height="18" fill="#cbd5e1"/><circle cx="224" cy="318" r="6" fill="#e2e8f0"/><rect x="541" y="361" width="70" height="39" fill="#f8fafc"/><path d="M541,361 Q576,310 611,361 Z" fill="#f8fafc"/><rect x="573" y="318" width="6" height="18" fill="#cbd5e1"/><circle cx="576" cy="318" r="6" fill="#e2e8f0"/><rect x="280" y="384" width="240" height="16" fill="#e2e8f0"/><path d="M240,394 L560,394 L800,520 L0,520 Z" fill="#3f4652"/><path d="M240,394 L560,394 L800,520 L0,520 Z" fill="url(#roadg)" opacity="0.35"/><path d="M400,394 L394,520 L406,520 Z" fill="#f8fafc" opacity="0.85"/><path d="M400,424 l0,26 M400,474 l0,34 M400,544 l0,44" stroke="#f8fafc" stroke-width="7" opacity="0.9"/><g transform="translate(307.0,330) scale(0.62)"><ellipse cx="150" cy="150" rx="150" ry="18" fill="#000" opacity="0.18"/><rect x="0" y="10" width="300" height="120" rx="20" fill="#dc2626"/><rect x="0" y="10" width="300" height="120" rx="20" fill="url(#gloss)" opacity="0.25"/><rect x="14" y="30" width="150" height="42" rx="8" fill="#dff1ff"/><g fill="#bfe3ff"><rect x="176" y="30" width="34" height="42" rx="6"/><rect x="216" y="30" width="34" height="42" rx="6"/><rect x="256" y="30" width="30" height="42" rx="6"/></g><rect x="0" y="92" width="300" height="12" fill="#0f172a" opacity="0.18"/><rect x="286" y="44" width="14" height="30" rx="3" fill="#ffd166"/><circle cx="70" cy="130" r="24" fill="#111827"/><circle cx="70" cy="130" r="10" fill="#9ca3af"/><circle cx="230" cy="130" r="24" fill="#111827"/><circle cx="230" cy="130" r="10" fill="#9ca3af"/></g><rect width="800" height="520" fill="url(#vg)"/><g transform="translate(24,462)"><rect x="0" y="0" width="125" height="34" rx="17" fill="#0f172a" opacity="0.62"/><path d="M18,9 a6,6 0 1 1 0,12 a6,6 0 1 1 0,-12 M18,21 l0,6" stroke="#ffd166" stroke-width="2.4" fill="none"/><text x="34" y="23" font-family="Segoe UI, Arial" font-size="16" fill="#fff">North India</text></g><text x="784" y="504" text-anchor="end" font-family="Segoe UI, Arial" font-size="15" fill="#ffffff" opacity="0.5">Shree Travels • placeholder</text></svg>