<svg xmlns="http://www.w3.org/2000/svg" viewBox="0 0 800 520" width="800" height="520" preserveAspectRatio="xMidYMid slice" role="img"><defs><linearGradient id="gloss" x1="0" y1="0" x2="0" y2="1"><stop offset="0" stop-color="#ffffff"/><stop offset="1" stop-color="#ffffff"/></linearGradient><linearGradient id="roadg" x1="0" y1="0" x2="0" y2="1"><stop offset="0" stop-color="#64748b"/><stop offset="1" stop-color="#1f2937"/></linearGradient><linearGradient id="sky_dest-bangalore.svg" x1="0" y1="0" x2="0" y2="1"><stop offset="0" stop-color="#c7d2fe"/><stop offset="1" stop-color="#ede9fe"/></linearGradient><linearGradient id="vg" x1="0" y1="0" x2="0" y2="1"><stop offset="0.55" stop-color="#000" stop-opacity="0"/><stop offset="1" stop-color="#000" stop-opacity="0.45"/></linearGradient></defs><rect width="800" height="520" fill="url(#sky_dest-bangalore.svg)"/><circle cx="120" cy="110" r="44" fill="#fff3d6" opacity="0.9"/><circle cx="120" cy="110" r="70" fill="#fff3d6" opacity="0.18"/><path d="M0,520 L0,390 Q0,390 50,400 Q100,410 150,400 Q200,390 250,400 Q300,410 350,400 Q400,390 450,400 Q500,410 550,400 Q600,390 650,400 Q700,410 750,400 L800,520 Z" fill="#93c5fd"/><rect x="90" y="280" width="46" height="120" fill="#475569" opacity="0.9"/><rect x="98" y="290" width="8" height="10" fill="#fde68a"/><rect x="116" y="310" width="8" height="10" fill="#fde68a"/><rect x="150" y="220" width="46" height="180" fill="#475569" opacity="0.9"/><rect x="158" y="230" width="8" height="10" fill="#fde68a"/><rect x="176" y="250" width="8" height="10" fill="#fde68a"/><rect x="210" y="310" width="46" height="90" fill="#475569" opacity="0.9"/><rect x="218" y="320" width="8" height="10" fill="#fde68a"/><rect x="236" y="340" width="8" height="10" fill="#fde68a"/><rect x="300" y="180" width="46" height="220" fill="#475569" opacity="0.9"/><rect x="308" y="190" width="8" height="10" fill="#fde68a"/><rect x="326" y="210" width="8" height="10" fill="#fde68a"/><rect x="360" y="260" width="46" height="140" fill="#475569" opacity="0.9"/><rect x="368" y="270" width="8" height="10" fill="#fde68a"/><rect x="386" y="290" width="8" height="10" fill="#fde68a"/><rect x="470" y="140" width="46" height="260" fill="#475569" opacity="0.9"/><rect x="478" y="150" width="8" height="10" fill="#fde68a"/><rect x="496" y="170" width="8" height="10" fill="#fde68a"/><rect x="540" y="290" width="46" height="110" fill="#475569" opacity="0.9"/><rect x="548" y="300" width="8" height="10" fill="#fde68a"/><rect x="566" y="320" width="8" height="10" fill="#fde68a"/><rect x="620" y="210" width="46" height="190" fill="#475569" opacity="0.9"/><rect x="628" y="220" width="8" height="10" fill="#fde68a"/><rect x="646" y="240" width="8" height="10" fill="#fde68a"/><rect x="700" y="250" width="46" height="150" fill="#475569" opacity="0.9"/><rect x="708" y="260" width="8" height="10" fill="#fde68a"/><rect x="726" y="280" width="8" height="10" fill="#fde68a"/><path d="M240,394 L560,394 L800,520 L0,520 Z" fill="#3f4652"/><path d="M240,394 L560,394 L800,520 L0,520 Z" fill="url(#roadg)" opacity="0.35"/><path d="M400,394 L394,520 L406,520 Z" fill="#f8fafc" opacity="0.85"/><path d="M400,424 l0,26 M400,474 l0,34 M400,544 l0,44" stroke="#f8fafc" stroke-width="7" opacity="0.9"/><g transform="translate(307.0,330) scale(0.62)"><ellipse cx="150" cy="150" rx="150" ry="18" fill="#000" opacity="0.18"/><rect x="0" y="10" width="300" height="120" rx="20" fill="#0ea5a4"/><rect x="0" y="10" width="300" height="120" rx="20" fill="url(#gloss)" opacity="0.25"/><rect x="14" y="30" width="150" height="42" rx="8" fill="#dff1ff"/><g fill="#bfe3ff"><rect x="176" y="30" width="34" height="42" rx="6"/><rect x="216" y="30" width="34" height="42" rx="6"/><rect x="256" y="30" width="30" height="42" rx="6"/></g><rect x="0" y="92" width="300" height="12" fill="#0f172a" opacity="0.18"/><rect x="286" y="44" width="14" height="30" rx="3" fill="#ffd166"/><circle cx="70" cy="130" r="24" fill="#111827"/><circle cx="70" cy="130" r="10" fill="#9ca3af"/><circle cx="230" cy="130" r="24" fill="#111827"/><circle cx="230" cy="130" r="10" fill="#9ca3af"/></g><rect width="800" height="520" fill="url(#vg)"/><g transform="translate(24,462)"><rect x="0" y="0" width="107" height="34" rx="17" fill="#0f172a" opacity="0.62"/><path d="M18,9 a6,6 0 1 1 0,12 a6,6 0 1 1 0,-12 M18,21 l0,6" stroke="#ffd166" stroke-width="2.4" fill="none"/><text x="34" y="23" font-family="Segoe UI, Arial" font-size="16" fill="#fff">Bangalore</text></g><text x="784" y="504" text-anchor="end" font-family="Segoe UI, Arial" font-size="15" fill="#ffffff" opacity="0.5">Shree Travels • placeholder</text></svg>