<svg xmlns="http://www.w3.org/2000/svg" viewBox="0 0 1600 900" width="1600" height="900" preserveAspectRatio="xMidYMid slice" role="img"><defs><linearGradient id="gloss" x1="0" y1="0" x2="0" y2="1"><stop offset="0" stop-color="#ffffff"/><stop offset="1" stop-color="#ffffff"/></linearGradient><linearGradient id="roadg" x1="0" y1="0" x2="0" y2="1"><stop offset="0" stop-color="#64748b"/><stop offset="1" stop-color="#1f2937"/></linearGradient><linearGradient id="hsky" x1="0" y1="0" x2="0" y2="1"><stop offset="0" stop-color="#0b2a5b"/><stop offset="0.5" stop-color="#1d4ed8"/><stop offset="1" stop-color="#f59e0b"/></linearGradient><linearGradient id="hveil" x1="0" y1="0" x2="0" y2="1"><stop offset="0" stop-color="#000" stop-opacity="0.35"/><stop offset="0.5" stop-color="#000" stop-opacity="0.1"/><stop offset="1" stop-color="#000" stop-opacity="0.45"/></linearGradient></defs><rect width="1600" height="900" fill="url(#hsky)"/><circle cx="1250" cy="200" r="90" fill="#fff6df" opacity="0.9"/><circle cx="1250" cy="200" r="144" fill="#fff6df" opacity="0.18"/><circle cx="487" cy="66" r="1" fill="#fff" opacity="0.7"/><circle cx="970" cy="33" r="2" fill="#fff" opacity="0.3"/><circle cx="960" cy="132" r="2" fill="#fff" opacity="0.3"/><circle cx="392" cy="240" r="2" fill="#fff" opacity="0.7"/><circle cx="975" cy="203" r="2" fill="#fff" opacity="0.3"/><circle cx="474" cy="77" r="2" fill="#fff" opacity="0.5"/><circle cx="1518" cy="7" r="2" fill="#fff" opacity="0.3"/><circle cx="326" cy="21" r="1" fill="#fff" opacity="0.3"/><circle cx="551" cy="242" r="2" fill="#fff" opacity="0.7"/><circle cx="793" cy="218" r="1" fill="#fff" opacity="0.7"/><circle cx="1181" cy="227" r="1" fill="#fff" opacity="0.5"/><circle cx="199" cy="18" r="1" fill="#fff" opacity="0.5"/><circle cx="444" cy="132" r="2" fill="#fff" opacity="0.5"/><circle cx="1595" cy="154" r="1" fill="#fff" opacity="0.7"/><circle cx="790" cy="179" r="2" fill="#fff" opacity="0.7"/><circle cx="834" cy="118" r="1" fill="#fff" opacity="0.7"/><circle cx="58" cy="143" r="2" fill="#fff" opacity="0.7"/><circle cx="1424" cy="83" r="2" fill="#fff" opacity="0.5"/><circle cx="1109" cy="53" r="2" fill="#fff" opacity="0.7"/><circle cx="432" cy="136" r="1" fill="#fff" opacity="0.3"/><circle cx="129" cy="246" r="2" fill="#fff" opacity="0.5"/><circle cx="181" cy="176" r="1" fill="#fff" opacity="0.5"/><circle cx="308" cy="10" r="1" fill="#fff" opacity="0.5"/><circle cx="1574" cy="212" r="1" fill="#fff" opacity="0.3"/><circle cx="1239" cy="23" r="1" fill="#fff" opacity="0.7"/><circle cx="1200" cy="169" r="2" fill="#fff" opacity="0.5"/><circle cx="1035" cy="120" r="1" fill="#fff" opacity="0.5"/><circle cx="14" cy="39" r="1" fill="#fff" opacity="0.7"/><circle cx="1096" cy="16" r="1" fill="#fff" opacity="0.5"/><circle cx="597" cy="134" r="1" fill="#fff" opacity="0.7"/><circle cx="86" cy="173" r="1" fill="#fff" opacity="0.5"/><circle cx="283" cy="193" r="1" fill="#fff" opacity="0.5"/><circle cx="1065" cy="197" r="2" fill="#fff" opacity="0.7"/><circle cx="1394" cy="52" r="2" fill="#fff" opacity="0.7"/><circle cx="555" cy="220" r="2" fill="#fff" opacity="0.7"/><circle cx="1465" cy="121" r="1" fill="#fff" opacity="0.5"/><circle cx="528" cy="155" r="2" fill="#fff" opacity="0.5"/><circle cx="23" cy="212" r="2" fill="#fff" opacity="0.5"/><circle cx="41" cy="192" r="2" fill="#fff" opacity="0.7"/><circle cx="1294" cy="68" r="1" fill="#fff" opacity="0.7"/><circle cx="1284" cy="170" r="1" fill="#fff" opacity="0.5"/><circle cx="1391" cy="180" r="2" fill="#fff" opacity="0.7"/><circle cx="571" cy="250" r="1" fill="#fff" opacity="0.7"/><circle cx="124" cy="10" r="1" fill="#fff" opacity="0.5"/><circle cx="1286" cy="233" r="1" fill="#fff" opacity="0.7"/><circle cx="1231" cy="163" r="1" fill="#fff" opacity="0.5"/><circle cx="379" cy="160" r="1" fill="#fff" opacity="0.7"/><circle cx="540" cy="153" r="1" fill="#fff" opacity="0.3"/><circle cx="1581" cy="13" r="2" fill="#fff" opacity="0.7"/><circle cx="1505" cy="67" r="1" fill="#fff" opacity="0.7"/><circle cx="455" cy="137" r="1" fill="#fff" opacity="0.5"/><circle cx="383" cy="222" r="2" fill="#fff" opacity="0.7"/><circle cx="198" cy="52" r="2" fill="#fff" opacity="0.5"/><circle cx="683" cy="114" r="1" fill="#fff" opacity="0.3"/><circle cx="163" cy="172" r="2" fill="#fff" opacity="0.7"/><circle cx="446" cy="230" r="1" fill="#fff" opacity="0.3"/><circle cx="247" cy="17" r="2" fill="#fff" opacity="0.3"/><circle cx="645" cy="93" r="1" fill="#fff" opacity="0.5"/><circle cx="1314" cy="43" r="2" fill="#fff" opacity="0.5"/><circle cx="1207" cy="66" r="1" fill="#fff" opacity="0.5"/><path d="M0,900 L0,540 Q0,540 100,570 Q200,600 300,570 Q400,540 500,570 Q600,600 700,570 Q800,540 900,570 Q1000,600 1100,570 Q1200,540 1300,570 Q1400,600 1500,570 L1600,900 Z" fill="#0b3aa8"/><path d="M102,710 L192,550 L282,710 Z" fill="#94a3b8"/><path d="M158,611 L192,550 L226,611 Q192,630 158,611 Z" fill="#f8fafc"/><path d="M454,710 L544,490 L634,710 Z" fill="#94a3b8"/><path d="M510,574 L544,490 L578,574 Q544,600 510,574 Z" fill="#f8fafc"/><path d="M838,710 L928,530 L1018,710 Z" fill="#94a3b8"/><path d="M894,598 L928,530 L962,598 Q928,620 894,598 Z" fill="#f8fafc"/><path d="M1222,710 L1312,510 L1402,710 Z" fill="#94a3b8"/><path d="M1278,586 L1312,510 L1346,586 Q1312,610 1278,586 Z" fill="#f8fafc"/><path d="M0,900 L0,690 Q0,690 100,710 Q200,730 300,710 Q400,690 500,710 Q600,730 700,710 Q800,690 900,710 Q1000,730 1100,710 Q1200,690 1300,710 Q1400,730 1500,710 L1600,900 Z" fill="#065f46"/><g transform="translate(180,690)"><path d="M0,-150 L-38,-50 L38,-50 Z" fill="#14532d"/><path d="M0,-190 L-30,-100 L30,-100 Z" fill="#166534"/></g><g transform="translate(360,690)"><path d="M0,-150 L-38,-50 L38,-50 Z" fill="#14532d"/><path d="M0,-190 L-30,-100 L30,-100 Z" fill="#166534"/></g><g transform="translate(1300,690)"><path d="M0,-150 L-38,-50 L38,-50 Z" fill="#14532d"/><path d="M0,-190 L-30,-100 L30,-100 Z" fill="#166534"/></g><g transform="translate(1480,690)"><path d="M0,-150 L-38,-50 L38,-50 Z" fill="#14532d"/><path d="M0,-190 L-30,-100 L30,-100 Z" fill="#166534"/></g><g transform="translate(1120,690) scale(1.6)"><path d="M-4,0 q4,-70 0,-120 q6,50 4,120 Z" fill="#8b5e34"/><g fill="#16a34a"><path d="M0,-120 q-60,-6 -86,26 q40,-6 86,-10 Z"/><path d="M0,-120 q60,-6 86,26 q-40,-6 -86,-10 Z"/><path d="M0,-120 q-44,-40 -30,-84 q26,26 30,80 Z"/><path d="M0,-120 q44,-40 30,-84 q-26,26 -30,80 Z"/><path d="M0,-124 q0,-40 0,-70 q10,34 6,72 Z"/></g></g><g transform="translate(520,690) scale(1.3)"><path d="M-4,0 q4,-70 0,-120 q6,50 4,120 Z" fill="#8b5e34"/><g fill="#16a34a"><path d="M0,-120 q-60,-6 -86,26 q40,-6 86,-10 Z"/><path d="M0,-120 q60,-6 86,26 q-40,-6 -86,-10 Z"/><path d="M0,-120 q-44,-40 -30,-84 q26,26 30,80 Z"/><path d="M0,-120 q44,-40 30,-84 q-26,26 -30,80 Z"/><path d="M0,-124 q0,-40 0,-70 q10,34 6,72 Z"/></g></g><rect x="715" y="630" width="210" height="62" rx="4" fill="#c2410c" opacity="0.92"/><rect x="715" y="630" width="210" height="6" fill="#fff" opacity="0.25"/><rect x="730" y="570" width="181" height="62" rx="4" fill="#c2410c" opacity="0.84"/><rect x="730" y="570" width="181" height="6" fill="#fff" opacity="0.25"/><rect x="744" y="510" width="151" height="62" rx="4" fill="#c2410c" opacity="0.76"/><rect x="744" y="510" width="151" height="6" fill="#fff" opacity="0.25"/><rect x="759" y="450" width="122" height="62" rx="4" fill="#c2410c" opacity="0.68"/><rect x="759" y="450" width="122" height="6" fill="#fff" opacity="0.25"/><rect x="774" y="390" width="92" height="62" rx="4" fill="#c2410c" opacity="0.60"/><rect x="774" y="390" width="92" height="6" fill="#fff" opacity="0.25"/><path d="M786,390 Q820,356 854,390 Z" fill="#b45309"/><circle cx="820" cy="360" r="6" fill="#fbbf24"/><path d="M480,684 L1120,684 L1600,900 L0,900 Z" fill="#3f4652"/><path d="M480,684 L1120,684 L1600,900 L0,900 Z" fill="url(#roadg)" opacity="0.35"/><path d="M800,684 L794,900 L806,900 Z" fill="#f8fafc" opacity="0.85"/><path d="M800,714 l0,26 M800,764 l0,34 M800,834 l0,44" stroke="#f8fafc" stroke-width="7" opacity="0.9"/><g transform="translate(545.0,540) scale(1.7)"><ellipse cx="150" cy="150" rx="150" ry="18" fill="#000" opacity="0.18"/><rect x="0" y="10" width="300" height="120" rx="20" fill="#f97316"/><rect x="0" y="10" width="300" height="120" rx="20" fill="url(#gloss)" opacity="0.25"/><rect x="14" y="30" width="150" height="42" rx="8" fill="#dff1ff"/><g fill="#bfe3ff"><rect x="176" y="30" width="34" height="42" rx="6"/><rect x="216" y="30" width="34" height="42" rx="6"/><rect x="256" y="30" width="30" height="42" rx="6"/></g><rect x="0" y="92" width="300" height="12" fill="#0f172a" opacity="0.18"/><rect x="286" y="44" width="14" height="30" rx="3" fill="#ffd166"/><circle cx="70" cy="130" r="24" fill="#111827"/><circle cx="70" cy="130" r="10" fill="#9ca3af"/><circle cx="230" cy="130" r="24" fill="#111827"/><circle cx="230" cy="130" r="10" fill="#9ca3af"/></g><rect width="1600" height="900" fill="url(#hveil)"/></svg>