<svg xmlns="http://www.w3.org/2000/svg" viewBox="0 0 800 520" width="800" height="520" preserveAspectRatio="xMidYMid slice" role="img"><defs><linearGradient id="gloss" x1="0" y1="0" x2="0" y2="1"><stop offset="0" stop-color="#ffffff"/><stop offset="1" stop-color="#ffffff"/></linearGradient><linearGradient id="roadg" x1="0" y1="0" x2="0" y2="1"><stop offset="0" stop-color="#64748b"/><stop offset="1" stop-color="#1f2937"/></linearGradient><linearGradient id="sky_video-shimla.svg" x1="0" y1="0" x2="0" y2="1"><stop offset="0" stop-color="#bae6fd"/><stop offset="1" stop-color="#f8fafc"/></linearGradient><linearGradient id="vg" x1="0" y1="0" x2="0" y2="1"><stop offset="0.55" stop-color="#000" stop-opacity="0"/><stop offset="1" stop-color="#000" stop-opacity="0.45"/></linearGradient></defs><rect width="800" height="520" fill="url(#sky_video-shimla.svg)"/><circle cx="120" cy="110" r="44" fill="#e0f2fe" opacity="0.9"/><circle cx="120" cy="110" r="70" fill="#e0f2fe" opacity="0.18"/><path d="M6,410 L96,250 L186,410 Z" fill="#94a3b8"/><path d="M62,311 L96,250 L130,311 Q96,330 62,311 Z" fill="#f8fafc"/><path d="M182,410 L272,190 L362,410 Z" fill="#94a3b8"/><path d="M238,274 L272,190 L306,274 Q272,300 238,274 Z" fill="#f8fafc"/><path d="M374,410 L464,230 L554,410 Z" fill="#94a3b8"/><path d="M430,298 L464,230 L498,298 Q464,320 430,298 Z" fill="#f8fafc"/><path d="M566,410 L656,210 L746,410 Z" fill="#94a3b8"/><path d="M622,286 L656,210 L690,286 Q656,310 622,286 Z" fill="#f8fafc"/><g transform="translate(128.0,400)"><path d="M0,-120 L-30,-40 L30,-40 Z" fill="#166534"/><path d="M0,-150 L-24,-80 L24,-80 Z" fill="#15803d"/><rect x="-5" y="-40" width="10" height="30" fill="#7c4a2d"/></g><g transform="translate(240.0,400)"><path d="M0,-120 L-30,-40 L30,-40 Z" fill="#166534"/><path d="M0,-150 L-24,-80 L24,-80 Z" fill="#15803d"/><rect x="-5" y="-40" width="10" height="30" fill="#7c4a2d"/></g><g transform="translate(640.0,400)"><path d="M0,-120 L-30,-40 L30,-40 Z" fill="#166534"/><path d="M0,-150 L-24,-80 L24,-80 Z" fill="#15803d"/><rect x="-5" y="-40" width="10" height="30" fill="#7c4a2d"/></g><g transform="translate(720.0,400)"><path d="M0,-120 L-30,-40 L30,-40 Z" fill="#166534"/><path d="M0,-150 L-24,-80 L24,-80 Z" fill="#15803d"/><rect x="-5" y="-40" width="10" height="30" fill="#7c4a2d"/></g><path d="M240,394 L560,394 L800,520 L0,520 Z" fill="#3f4652"/><path d="M240,394 L560,394 L800,520 L0,520 Z" fill="url(#roadg)" opacity="0.35"/><path d="M400,394 L394,520 L406,520 Z" fill="#f8fafc" opacity="0.85"/><path d="M400,424 l0,26 M400,474 l0,34 M400,544 l0,44" stroke="#f8fafc" stroke-width="7" opacity="0.9"/><g><g transform="translate(0,330) scale(0.62)"><ellipse cx="150" cy="150" rx="150" ry="18" fill="#000" opacity="0.18"/><rect x="0" y="10" width="300" height="120" rx="20" fill="#dc2626"/><rect x="0" y="10" width="300" height="120" rx="20" fill="url(#gloss)" opacity="0.25"/><rect x="14" y="30" width="150" height="42" rx="8" fill="#dff1ff"/><g fill="#bfe3ff"><rect x="176" y="30" width="34" height="42" rx="6"/><rect x="216" y="30" width="34" height="42" rx="6"/><rect x="256" y="30" width="30" height="42" rx="6"/></g><rect x="0" y="92" width="300" height="12" fill="#0f172a" opacity="0.18"/><rect x="286" y="44" width="14" height="30" rx="3" fill="#ffd166"/><circle cx="70" cy="130" r="24" fill="#111827"/><circle cx="70" cy="130" r="10" fill="#9ca3af"/><circle cx="230" cy="130" r="24" fill="#111827"/><circle cx="230" cy="130" r="10" fill="#9ca3af"/></g><animateTransform attributeName="transform" type="translate" values="-260,0; 900,0" dur="7s" repeatCount="indefinite" additive="sum"/></g><rect width="800" height="520" fill="url(#vg)"/><g transform="translate(24,462)"><rect x="0" y="0" width="170" height="34" rx="17" fill="#0f172a" opacity="0.62"/><path d="M18,9 a6,6 0 1 1 0,12 a6,6 0 1 1 0,-12 M18,21 l0,6" stroke="#ffd166" stroke-width="2.4" fill="none"/><text x="34" y="23" font-family="Segoe UI, Arial" font-size="16" fill="#fff">Shimla Snow Trip</text></g><text x="784" y="504" text-anchor="end" font-family="Segoe UI, Arial" font-size="15" fill="#ffffff" opacity="0.5">Shree Travels • placeholder</text><g transform="translate(400.0,250.0)"><circle r="46" fill="#000" opacity="0.45"/><circle r="46" fill="none" stroke="#fff" stroke-width="3" opacity="0.8"/><path d="M-14,-22 L26,0 L-14,22 Z" fill="#fff"/></g></svg>